<?xml version="1.0" standalone="no"?>
<!DOCTYPE svg PUBLIC "-//W3C//DTD SVG 20010904//EN"
 "http://www.w3.org/TR/2001/REC-SVG-20010904/DTD/svg10.dtd">
<svg version="1.0" xmlns="http://www.w3.org/2000/svg"
 width="549.000000pt" height="549.000000pt" viewBox="0 0 549.000000 549.000000"
 preserveAspectRatio="xMidYMid meet">
<metadata>
Created by potrace 1.11, written by Peter Selinger 2001-2013
</metadata>
<g transform="translate(0.000000,549.000000) scale(0.100000,-0.100000)"
fill="#000000" stroke="none">
<path d="M2811 4847 c-6 -16 -11 -43 -11 -62 0 -19 -5 -37 -11 -41 -6 -4 -35
-1 -65 6 -41 10 -57 10 -67 1 -19 -15 -153 -3 -172 16 -20 20 -25 16 -25 -20
0 -47 -13 -56 -61 -43 -30 8 -44 7 -57 -2 -9 -7 -24 -15 -32 -19 -8 -4 -18
-11 -21 -16 -4 -5 -19 5 -34 22 -16 17 -32 31 -36 31 -4 0 -13 -16 -20 -35 -7
-19 -19 -35 -26 -35 -7 0 -20 -11 -28 -24 -14 -21 -19 -23 -44 -13 -40 15
-121 -24 -121 -58 0 -41 -21 -40 -59 1 -20 21 -51 44 -69 51 -32 11 -34 10
-27 -10 17 -52 17 -87 2 -87 -8 0 -17 -5 -19 -12 -2 -6 -26 24 -52 66 -27 42
-50 76 -52 74 -2 -2 3 -28 11 -58 20 -73 19 -91 -5 -97 -13 -3 -20 -14 -20
-29 0 -21 -5 -24 -34 -24 -24 0 -39 7 -49 20 -9 13 -20 18 -31 14 -12 -5 -27
3 -47 25 -16 18 -29 36 -29 41 0 4 -7 10 -15 14 -11 4 -16 -5 -21 -34 -4 -22
-9 -40 -12 -40 -3 0 -18 12 -34 27 -15 14 -30 25 -32 22 -5 -5 -14 -53 -15
-82 -1 -15 -7 -16 -43 -11 -45 8 -68 -9 -68 -52 0 -36 -24 -48 -59 -30 -43 23
-71 21 -71 -5 0 -19 -4 -20 -34 -15 -41 8 -62 -16 -44 -48 11 -20 -3 -36 -33
-36 -9 0 -22 -7 -29 -15 -11 -13 -9 -20 9 -38 28 -30 27 -36 -8 -48 -24 -9
-29 -15 -27 -42 1 -25 -5 -34 -26 -44 -23 -12 -26 -18 -21 -48 5 -29 1 -39
-21 -60 -30 -28 -33 -51 -9 -77 15 -17 15 -19 0 -36 -23 -26 -21 -41 7 -48 23
-5 23 -7 9 -35 -14 -28 -14 -32 7 -54 14 -15 18 -25 11 -30 -23 -14 -9 -37 34
-55 25 -11 45 -24 45 -29 0 -6 -13 -20 -30 -33 -38 -27 -38 -42 -1 -58 16 -6
28 -17 25 -24 -3 -7 4 -21 16 -31 12 -11 20 -31 20 -52 0 -21 6 -36 15 -39 17
-7 20 -34 4 -34 -7 0 -22 -11 -35 -25 l-24 -26 27 -63 26 -64 -32 -34 c-31
-33 -39 -62 -21 -73 6 -3 7 -17 4 -31 -3 -13 -2 -24 3 -24 5 0 8 -21 7 -47 -2
-40 -8 -52 -35 -75 -25 -21 -30 -31 -22 -39 6 -6 9 -17 7 -24 -3 -7 9 -16 28
-21 20 -6 34 -17 36 -29 2 -11 10 -27 17 -35 7 -8 12 -34 12 -56 -2 -45 37
-141 64 -161 12 -9 15 -28 14 -81 -2 -38 -8 -78 -14 -90 -20 -37 -14 -59 19
-65 18 -4 30 -13 30 -22 0 -8 5 -15 10 -15 6 0 8 -10 4 -24 -4 -18 3 -32 35
-63 23 -22 41 -49 41 -59 0 -11 20 -40 45 -64 35 -34 45 -51 45 -76 0 -18 5
-45 10 -59 10 -27 23 -29 73 -9 19 7 41 -33 51 -91 12 -72 26 -95 56 -95 45 0
119 -44 148 -89 15 -24 33 -40 42 -38 8 1 26 -7 39 -20 18 -16 29 -19 37 -12
9 7 22 0 48 -26 20 -20 56 -44 80 -55 24 -10 47 -23 50 -29 8 -12 60 -37 97
-45 28 -6 79 -46 79 -62 0 -6 17 -23 39 -39 46 -35 61 -71 61 -149 0 -48 4
-61 23 -77 12 -10 30 -18 40 -19 10 0 24 -15 34 -40 10 -23 25 -40 34 -40 17
0 50 -32 68 -68 7 -12 21 -22 33 -22 13 0 38 -17 60 -42 34 -38 41 -41 58 -30
30 18 50 15 76 -13 27 -29 56 -32 79 -9 13 14 20 14 45 4 16 -7 34 -9 41 -5
13 9 80 16 148 16 25 1 64 10 87 21 24 11 51 17 62 14 22 -7 82 55 82 85 0 16
7 19 44 19 70 0 76 5 69 55 -5 42 -4 44 35 68 39 25 40 27 47 101 3 41 4 80 0
86 -10 16 13 39 34 33 13 -3 21 2 26 16 3 12 11 21 16 21 5 0 14 11 19 25 5
14 16 25 24 25 7 0 19 7 26 15 10 12 15 12 37 -2 25 -17 25 -17 102 64 42 44
91 86 109 93 17 7 32 18 32 25 0 18 36 47 62 50 13 1 28 3 34 4 7 0 18 21 25
45 17 58 26 69 79 96 25 12 55 33 67 46 12 13 34 24 48 24 19 0 25 5 25 23 0
13 15 36 36 55 33 31 35 34 20 51 -23 26 -20 32 34 74 37 27 49 43 47 60 -2
19 2 22 26 19 19 -2 27 2 27 13 0 8 9 23 19 32 19 16 19 16 -1 44 l-21 27 23
37 c12 20 33 43 47 52 21 14 23 21 18 53 -6 34 -3 40 34 72 45 38 52 67 21 75
-23 6 -20 34 6 64 9 10 12 27 8 46 -4 19 0 42 9 60 9 17 13 40 10 52 -4 15 6
46 27 90 69 138 71 155 25 167 -18 4 -22 12 -20 37 1 18 5 40 9 49 4 9 2 26
-4 38 -9 17 -9 25 3 38 8 9 17 28 19 42 3 22 -1 25 -29 28 -31 3 -33 6 -33 40
0 21 8 48 17 61 16 23 15 25 -10 45 -15 12 -27 25 -27 29 0 4 11 30 25 59 14
28 25 56 25 61 0 4 11 23 25 41 14 18 25 38 25 44 0 6 11 19 25 28 28 18 33
42 10 50 -17 7 -20 40 -5 49 5 3 21 26 35 50 25 42 25 45 10 69 -14 21 -15 31
-6 58 10 28 9 35 -6 45 -9 7 -21 13 -26 13 -6 0 -7 24 -3 58 4 41 2 65 -9 86
-8 15 -15 36 -15 46 0 25 -27 51 -45 44 -11 -5 -15 2 -15 24 0 46 -10 65 -26
51 -19 -16 -34 -2 -34 30 0 16 -9 40 -21 55 -21 27 -59 36 -59 14 0 -9 -3 -9
-11 -1 -8 8 -8 30 1 83 7 39 9 74 6 77 -4 4 -21 -8 -39 -25 -34 -33 -72 -42
-80 -19 -3 9 -11 9 -36 0 -21 -8 -41 -9 -56 -3 -15 6 -34 5 -53 -2 -40 -15
-62 2 -62 49 l0 34 -26 -20 c-15 -12 -36 -21 -47 -21 -11 0 -31 -10 -44 -22
-21 -20 -28 -21 -75 -11 -42 8 -56 7 -78 -5 -25 -14 -30 -14 -76 8 -56 27 -60
31 -69 79 -4 19 -15 45 -25 58 l-18 24 -13 -36 c-15 -39 -25 -44 -34 -15 -4
12 -19 22 -42 26 -21 4 -37 14 -40 23 -2 9 -14 21 -26 27 -18 8 -27 6 -49 -14
l-26 -24 -37 51 c-20 28 -40 51 -44 51 -4 0 -13 -11 -19 -25 -17 -36 -58 -34
-80 5 -9 16 -23 30 -29 30 -7 0 -13 6 -13 13 0 7 -6 22 -14 33 -16 21 -13 27
-31 -62 -5 -22 -8 -24 -22 -13 -9 8 -24 33 -34 56 -20 46 -29 52 -49 28 -8
-10 -17 -12 -29 -5 -23 12 -61 2 -61 -16 0 -35 -59 9 -100 75 l-29 46 -10 -28z
m242 -183 c109 -16 259 -54 351 -88 89 -34 251 -117 329 -169 l67 -45 58 20
c31 11 98 24 149 29 137 13 235 -15 364 -102 260 -176 311 -553 109 -806 l-40
-50 25 -109 c103 -457 3 -966 -264 -1344 -140 -199 -252 -309 -456 -447 -84
-57 -253 -146 -324 -171 -30 -10 -31 -14 -31 -64 0 -125 -58 -255 -160 -358
-88 -88 -183 -136 -313 -157 -88 -15 -103 -15 -179 0 -247 49 -433 243 -456
476 l-7 64 -76 27 c-398 143 -738 449 -935 840 -166 333 -221 756 -144 1113
l21 96 -49 60 c-88 110 -123 209 -124 357 -1 183 74 335 223 450 114 88 291
128 433 99 41 -9 90 -22 108 -29 32 -14 35 -13 98 31 100 70 293 167 412 207
269 89 526 112 811 70z"/>
<path d="M2630 4659 c-122 -11 -200 -27 -330 -66 -151 -45 -438 -187 -495
-244 -15 -15 -12 -19 37 -55 29 -21 58 -42 64 -46 6 -4 47 15 93 42 223 135
509 220 735 220 l64 0 -14 47 c-13 44 -13 49 3 60 23 17 62 16 69 -1 4 -11 -9
-51 -34 -98 -2 -5 15 -8 37 -8 30 0 41 4 41 15 0 8 5 15 10 15 6 0 10 -6 10
-14 0 -15 20 -21 105 -32 172 -21 377 -93 544 -191 41 -24 79 -42 86 -39 6 2
37 23 69 47 l57 43 -68 44 c-37 24 -117 68 -178 98 -287 139 -587 193 -905
163z m96 -70 c8 -17 12 -35 7 -39 -13 -12 -92 -19 -99 -9 -9 15 39 79 58 79
10 0 25 -14 34 -31z m249 1 c-5 -8 -11 -8 -17 -2 -6 6 -7 16 -3 22 5 8 11 8
17 2 6 -6 7 -16 3 -22z m186 3 c19 -16 31 -65 23 -88 -9 -23 -31 -18 -38 10
-8 32 -56 37 -56 5 0 -22 -3 -23 -38 -14 -16 5 -22 13 -20 28 1 11 -1 27 -5
34 -5 7 -6 21 -2 31 5 17 13 19 63 14 31 -3 64 -12 73 -20z m-565 -18 c2 -40
-12 -55 -52 -55 -36 0 -39 5 -28 59 6 30 9 32 43 29 32 -3 36 -6 37 -33z
m-126 6 c14 -28 12 -67 -5 -81 -18 -15 -42 -3 -26 13 19 19 12 47 -14 57 -34
13 -32 30 5 30 19 0 33 -7 40 -19z m450 5 c0 -20 -19 -31 -32 -18 -6 6 -7 15
-4 21 10 16 36 13 36 -3z m387 -28 c13 -12 23 -27 23 -35 0 -7 11 -15 24 -19
25 -6 43 -45 30 -65 -7 -13 -29 5 -29 24 0 6 -11 14 -25 17 -14 3 -26 14 -29
25 -3 22 -19 45 -30 45 -4 0 -13 -16 -20 -35 -18 -50 -34 -45 -26 8 11 61 40
74 82 35z m-927 -7 c0 -11 -17 -17 -72 -27 -30 -5 -38 -3 -38 9 0 9 10 18 23
20 42 8 87 7 87 -2z m-150 -57 c0 -24 -5 -34 -15 -34 -8 0 -15 -4 -15 -10 0
-5 -6 -10 -14 -10 -14 0 -26 29 -26 63 0 19 30 24 31 5 0 -7 4 -3 10 10 12 32
29 18 29 -24z m780 36 c0 -5 -4 -10 -10 -10 -5 0 -10 5 -10 10 0 6 5 10 10 10
6 0 10 -4 10 -10z m-610 -24 c0 -9 -18 -16 -50 -20 -66 -9 -64 -9 -68 3 -4 11
48 29 91 30 17 1 27 -4 27 -13z m1060 -31 c0 -8 6 -15 13 -16 6 -1 21 -2 31
-3 27 -2 30 -18 6 -44 -22 -24 -40 -21 -40 5 0 12 -7 14 -30 10 -16 -4 -30 -5
-30 -3 0 2 5 17 11 35 11 32 39 43 39 16z m-1320 -15 c0 -11 -7 -20 -15 -20
-15 0 -21 21 -8 33 12 13 23 7 23 -13z m-69 -30 c19 -11 24 -35 13 -64 -10
-26 -32 -18 -36 11 -2 19 -10 29 -23 31 -35 6 -46 12 -40 22 8 13 61 13 86 0z
m79 -15 c0 -8 -4 -15 -10 -15 -5 0 -10 7 -10 15 0 8 5 15 10 15 6 0 10 -7 10
-15z m1435 -15 c3 -6 -1 -13 -10 -16 -9 -4 -15 -15 -13 -27 5 -33 -20 -31 -37
4 -14 26 -15 33 -3 40 18 12 55 11 63 -1z m-1566 -35 c11 -11 7 -16 -25 -33
-30 -14 -51 -18 -87 -13 l-49 6 28 24 c47 41 100 47 133 16z m1631 -15 c0 -11
-7 -20 -15 -20 -15 0 -21 21 -8 33 12 13 23 7 23 -13z m55 0 c7 -11 -51 -78
-60 -68 -8 8 32 78 45 78 5 0 11 -4 15 -10z"/>
<path d="M2645 4469 c-101 -10 -216 -33 -320 -66 -82 -25 -345 -148 -345 -161
0 -4 367 -7 815 -7 448 0 815 3 815 7 0 13 -263 136 -345 161 -208 65 -412 87
-620 66z m409 -79 c80 -20 126 -42 126 -60 0 -30 -48 -35 -355 -37 -303 -2
-401 5 -416 29 -17 27 93 69 231 88 103 14 323 4 414 -20z"/>
<path d="M3923 4366 c-248 -60 -421 -298 -400 -549 12 -135 63 -245 158 -339
94 -92 233 -148 367 -148 322 1 572 302 513 616 -16 83 -50 160 -99 226 -41
55 -47 60 -50 40 -2 -14 5 -33 17 -46 39 -41 20 -65 -20 -25 -16 16 -29 20
-50 15 -37 -7 -41 21 -5 30 17 4 25 14 29 37 5 38 -12 54 -108 101 -111 54
-238 69 -352 42z m51 -87 c-2 -58 -19 -68 -19 -11 0 26 -4 56 -9 67 -8 19 -8
19 10 2 13 -12 18 -30 18 -58z m66 47 c0 -14 -20 -36 -32 -36 -9 0 -11 44 -2
53 9 9 34 -4 34 -17z m44 -3 c7 -18 -48 -83 -71 -83 -20 0 -16 9 17 37 17 13
30 33 30 44 0 23 16 25 24 2z m-174 -3 c0 -8 -51 -40 -65 -40 -15 0 -2 28 18
38 28 14 47 15 47 2z m311 0 c24 -13 54 -69 42 -81 -5 -5 -23 -12 -41 -15 -40
-8 -43 10 -5 29 l27 15 -27 24 c-38 35 -36 49 4 28z m-404 -49 c-4 -16 1 -21
22 -23 36 -4 34 -32 -2 -36 -34 -4 -57 13 -57 43 0 25 8 35 28 35 9 0 13 -7 9
-19z m363 15 c0 -2 2 -10 5 -18 4 -10 -9 -13 -50 -14 -59 -2 -65 2 -37 22 15
12 82 20 82 10z m154 -32 c10 -27 7 -44 -9 -44 -10 0 -15 10 -15 30 0 32 14
40 24 14z m-590 -33 c3 -5 -1 -14 -8 -20 -16 -13 -32 2 -21 19 8 12 22 13 29
1z m44 -44 c2 -10 -3 -17 -12 -17 -18 0 -29 16 -21 31 9 14 29 6 33 -14z m-89
-33 c-12 -13 -26 -24 -31 -24 -14 0 -9 19 12 40 29 29 47 14 19 -16z m39 -16
c-2 -15 -11 -24 -25 -26 -27 -4 -29 5 -6 30 22 24 35 23 31 -4z m497 2 c3 -5
-1 -10 -9 -10 -8 0 -18 5 -21 10 -3 6 1 10 9 10 8 0 18 -4 21 -10z m255 -66
c0 -15 -6 -24 -15 -24 -15 0 -21 40 -9 53 12 11 24 -3 24 -29z m-62 14 c16
-16 15 -48 -2 -48 -14 0 -26 21 -26 46 0 17 12 18 28 2z m-329 -9 c76 -12 104
-26 186 -90 57 -45 125 -122 153 -176 13 -24 16 -82 4 -100 -9 -14 -72 -23
-178 -27 -78 -2 -134 -21 -134 -46 0 -15 30 -40 48 -40 15 1 15 2 0 11 -27 15
-21 36 13 48 49 17 77 13 94 -12 31 -48 -19 -114 -96 -124 -48 -7 -123 19
-144 50 -32 46 -6 151 46 188 34 24 132 59 168 59 14 0 33 5 41 10 12 9 1 24
-62 84 -80 77 -154 119 -240 137 -52 12 -54 25 -3 32 17 2 32 5 35 5 3 1 34
-3 69 -9z m-402 -16 c6 -16 -44 -66 -59 -61 -14 5 -30 57 -22 70 8 13 77 5 81
-9z m209 -53 c24 0 24 -1 9 -30 -8 -16 -15 -36 -15 -44 0 -23 31 -87 62 -128
l28 -36 -37 -13 c-21 -6 -60 -23 -88 -38 -27 -14 -53 -27 -57 -29 -17 -8 -7
62 13 89 11 16 18 33 14 38 -12 21 -124 81 -149 81 -51 0 -21 41 61 84 39 19
103 36 121 30 8 -2 25 -4 38 -4z m-292 -22 c3 -13 1 -27 -3 -31 -14 -14 -31 2
-31 29 0 30 26 32 34 2z m876 2 c0 -5 -4 -10 -10 -10 -5 0 -10 5 -10 10 0 6 5
10 10 10 6 0 10 -4 10 -10z m-466 -41 c30 -24 56 -69 56 -99 0 -25 -1 -25 -50
0 -48 24 -76 71 -60 100 13 25 21 25 54 -1z m486 -3 c0 -3 -4 -8 -10 -11 -5
-3 -10 -1 -10 4 0 6 5 11 10 11 6 0 10 -2 10 -4z m35 -38 c-10 -33 -31 -52
-49 -45 -24 9 -21 40 3 32 14 -4 21 0 26 15 3 11 11 20 16 20 6 0 7 -10 4 -22z
m-935 2 c0 -5 -4 -10 -10 -10 -5 0 -10 5 -10 10 0 6 5 10 10 10 6 0 10 -4 10
-10z m34 -56 c11 -28 7 -74 -7 -74 -21 0 -57 30 -57 47 0 17 27 42 46 43 7 0
15 -7 18 -16z m886 -34 c0 -5 -4 -10 -10 -10 -5 0 -10 5 -10 10 0 6 5 10 10
10 6 0 10 -4 10 -10z m-32 -25 c6 -14 18 -25 27 -25 8 0 15 -7 15 -15 0 -8 -5
-15 -12 -15 -19 0 -58 42 -58 62 0 26 15 22 28 -7z m-848 -74 c0 -6 -4 -13
-10 -16 -16 -10 -12 -22 10 -28 14 -3 20 -14 20 -31 0 -22 4 -26 29 -26 35 0
60 -25 43 -42 -7 -7 -12 -19 -12 -27 0 -13 2 -14 9 -2 11 18 31 5 31 -20 0
-14 -7 -19 -25 -19 -31 0 -50 32 -36 59 11 20 -2 31 -39 31 -13 0 -20 9 -22
28 -2 19 -9 28 -25 30 -27 4 -29 14 -7 47 16 25 34 33 34 16z m870 -16 c0 -25
-27 -72 -45 -79 -9 -3 -25 -6 -36 -6 -13 0 -19 -7 -19 -24 0 -27 -46 -70 -67
-62 -19 8 -28 -15 -9 -26 9 -5 16 -12 16 -17 0 -8 -85 -51 -101 -51 -30 0 31
114 76 144 26 17 27 17 20 -3 -3 -12 -2 -21 3 -21 16 0 30 23 34 55 3 27 7 31
43 35 33 4 43 11 55 37 16 35 30 43 30 18z m-690 -174 c0 -16 -28 -51 -42 -51
-5 0 -4 9 2 21 6 11 11 30 10 42 -1 12 -2 27 -1 32 2 15 31 -26 31 -44z m46
-9 c15 -10 34 -47 34 -67 0 -13 -9 -16 -42 -13 -44 3 -55 20 -18 26 14 2 19 9
16 18 -3 8 -9 21 -12 29 -7 16 4 19 22 7z m90 -47 c18 -43 18 -50 -2 -69 -17
-18 -74 -22 -74 -5 0 5 14 15 31 21 21 7 29 15 25 27 -17 54 -18 61 -7 61 7 0
19 -16 27 -35z m214 -5 c0 -12 -28 -25 -36 -17 -9 9 6 27 22 27 8 0 14 -5 14
-10z m40 -35 c0 -8 -4 -15 -10 -15 -5 0 -10 7 -10 15 0 8 5 15 10 15 6 0 10
-7 10 -15z m-123 -25 c0 -27 -3 -30 -34 -30 -39 0 -44 20 -10 43 33 24 44 20
44 -13z m63 0 c0 -5 -7 -10 -15 -10 -8 0 -15 5 -15 10 0 6 7 10 15 10 8 0 15
-4 15 -10z"/>
<path d="M1403 4346 c-190 -46 -338 -195 -388 -391 -81 -319 174 -644 507
-645 288 -1 528 238 528 525 0 196 -118 385 -292 469 -85 41 -88 42 -88 21 0
-16 -42 -31 -59 -21 -6 4 -19 1 -30 -6 -15 -9 -23 -9 -35 1 -26 21 -20 42 10
39 15 -2 29 3 31 10 6 16 -113 15 -184 -2z m77 -23 c0 -12 -63 -73 -76 -73
-25 0 -24 31 3 56 24 22 73 34 73 17z m230 -23 c0 -5 -4 -10 -10 -10 -5 0 -10
5 -10 10 0 6 5 10 10 10 6 0 10 -4 10 -10z m-18 -35 c34 -14 70 -33 81 -42 47
-43 78 -153 58 -205 -11 -29 -31 -38 -31 -14 0 24 -50 56 -87 56 -25 0 -44
-10 -78 -41 -25 -23 -51 -39 -59 -36 -9 4 -15 27 -18 71 -5 80 -29 119 -76
124 -18 2 -32 7 -32 13 0 14 106 80 142 89 18 4 34 8 36 9 1 1 30 -10 64 -24z
m124 -16 c13 -15 14 -19 3 -19 -19 0 -79 37 -79 49 0 15 55 -7 76 -30z m-456
22 c0 -20 -13 -41 -25 -41 -18 0 -26 15 -19 34 6 17 44 23 44 7z m-70 -40 c12
-23 13 -81 2 -97 -8 -13 -66 -44 -82 -44 -22 0 -8 36 21 53 30 16 31 20 24 62
-5 37 -3 45 9 45 8 0 20 -9 26 -19z m-58 -53 c-15 -15 -26 -4 -18 18 5 13 9
15 18 6 9 -9 9 -15 0 -24z m648 1 c0 -11 -4 -17 -10 -14 -5 3 -10 13 -10 21 0
8 5 14 10 14 6 0 10 -9 10 -21z m-698 -81 c5 -42 3 -48 -24 -68 -15 -11 -33
-18 -38 -15 -15 9 -12 52 6 88 36 71 49 70 56 -5z m314 -36 c18 -94 -29 -231
-117 -341 -45 -58 -64 -65 -56 -21 8 37 -13 60 -56 60 l-32 0 52 48 c80 73
154 197 168 281 7 41 9 43 21 26 8 -10 17 -34 20 -53z m-132 -8 c-1 -51 -27
-104 -81 -164 -50 -56 -74 -62 -91 -25 -18 39 -14 84 9 121 21 35 135 117 153
111 6 -2 11 -22 10 -43z m576 17 c0 -20 -25 -51 -41 -51 -15 0 -10 32 8 52 21
23 33 23 33 -1z m20 -71 c0 -21 -15 -27 -25 -10 -7 12 2 30 16 30 5 0 9 -9 9
-20z m-850 -31 c0 -14 -5 -19 -17 -17 -26 5 -29 38 -4 38 15 0 21 -6 21 -21z
m766 -16 c17 -17 15 -18 -37 -26 -78 -12 -108 -26 -115 -52 -6 -26 0 -143 11
-192 7 -31 6 -32 -36 -37 -24 -3 -69 -5 -99 -3 l-55 2 1 -32 c2 -34 -15 -43
-43 -25 -17 10 -43 76 -43 106 0 22 7 26 69 40 39 9 79 16 90 16 28 0 33 27
22 120 -6 45 -8 86 -5 91 3 5 54 9 114 9 90 0 112 -3 126 -17z m122 -38 c25
-54 6 -95 -42 -95 -19 0 -21 42 -5 89 13 38 32 40 47 6z m-882 -15 c21 0 23
-3 17 -32 -9 -49 -33 -98 -49 -98 -19 0 -34 41 -34 89 0 42 7 54 28 46 7 -3
24 -5 38 -5z m874 -140 c0 -24 -26 -38 -42 -22 -16 16 -2 42 22 42 13 0 20 -7
20 -20z m-850 -51 c0 -20 -4 -29 -12 -27 -15 5 -22 33 -14 54 9 24 26 6 26
-27z m-46 15 c9 -23 7 -54 -3 -54 -11 0 -21 25 -21 51 0 23 15 25 24 3z m86
-64 c0 -20 -19 -30 -56 -30 -15 0 -24 6 -24 15 0 8 8 15 19 15 10 0 24 7 31
15 15 18 30 11 30 -15z m700 15 c0 -8 -9 -24 -20 -35 -22 -22 -50 -27 -50 -8
0 16 41 58 57 58 7 0 13 -7 13 -15z m110 -26 c0 -25 -11 -41 -55 -81 -30 -28
-57 -59 -60 -69 -10 -30 -42 -23 -54 12 -17 50 3 81 63 94 47 10 58 19 70 58
9 30 36 20 36 -14z m-780 -74 c0 -53 -18 -59 -62 -20 -36 31 -35 42 5 54 55
16 57 14 57 -34z m256 -4 c34 -23 67 -41 73 -41 20 0 12 -15 -18 -33 -36 -21
-63 -22 -101 -2 -31 16 -60 61 -60 93 0 42 24 38 106 -17z m-174 2 c20 -18 24
-63 6 -81 -15 -15 -58 -16 -58 -2 0 6 7 13 15 16 8 4 15 15 15 25 0 11 -7 22
-15 25 -20 8 -19 34 2 34 9 0 25 -7 35 -17z m478 -108 c0 -25 -23 -35 -35 -15
-10 16 2 40 20 40 9 0 15 -9 15 -25z m-65 -25 c0 -13 -6 -25 -12 -27 -16 -6
-27 21 -19 43 9 23 31 11 31 -16z m-306 -15 c39 -35 64 -44 76 -25 3 6 13 10
21 10 22 0 17 -37 -8 -54 -37 -26 -67 -19 -111 25 -22 22 -49 45 -59 50 -10 6
-16 14 -13 20 13 20 56 8 94 -26z m257 4 c9 -16 -97 -101 -110 -88 -2 2 -2 25
1 52 l6 47 48 0 c26 0 51 -5 55 -11z"/>
<path d="M1583 4225 c-39 -17 -42 -36 -8 -69 16 -16 25 -36 25 -56 0 -35 10
-38 36 -9 28 31 58 40 93 28 46 -16 52 -8 31 38 -32 73 -104 100 -177 68z"/>
<path d="M1618 4338 c9 -9 15 -9 24 0 9 9 7 12 -12 12 -19 0 -21 -3 -12 -12z"/>
<path d="M1960 4193 c0 -1 18 -30 40 -64 58 -90 82 -174 83 -289 1 -136 -32
-237 -109 -339 -19 -24 -34 -47 -34 -50 0 -3 30 -26 66 -51 37 -25 117 -82
178 -127 l111 -82 19 27 c38 53 124 128 182 159 89 47 166 66 269 66 103 0
180 -19 269 -66 59 -31 159 -120 187 -165 l14 -24 115 79 c63 43 153 102 200
132 47 30 87 55 89 57 2 2 -14 27 -36 56 -84 110 -117 208 -116 348 1 106 23
190 74 273 16 26 29 51 29 55 0 4 -367 7 -815 7 -448 0 -815 -1 -815 -2z
m1446 -79 c38 -28 44 -60 32 -170 -13 -113 -2 -195 44 -327 42 -122 37 -156
-31 -218 -28 -25 -76 -58 -106 -74 -71 -35 -102 -28 -219 50 -173 115 -341
145 -531 94 -55 -15 -162 -71 -210 -109 -91 -73 -124 -74 -221 -12 -70 45
-114 94 -114 127 0 12 16 66 35 118 48 135 58 224 38 361 -11 82 -13 114 -4
133 24 52 27 53 668 50 581 -2 592 -2 619 -23z"/>
<path d="M3547 3342 c-70 -48 -162 -110 -205 -138 -42 -28 -76 -55 -75 -60 1
-5 14 -43 29 -84 22 -61 27 -92 27 -170 0 -110 -11 -157 -59 -257 -41 -87
-142 -193 -224 -238 -30 -16 -90 -39 -134 -50 l-78 -21 0 -205 0 -204 74 -7
c90 -8 169 -37 245 -88 72 -48 100 -77 157 -164 l45 -68 174 349 c96 191 188
373 204 403 17 30 109 213 206 405 97 193 204 401 238 464 l61 114 -34 -7
c-139 -30 -245 -26 -348 13 -60 23 -132 64 -150 85 -7 9 -15 16 -19 16 -3 0
-63 -40 -134 -88z m277 -52 c67 -22 140 -45 164 -51 24 -5 52 -19 64 -31 37
-37 20 -88 -136 -392 -502 -981 -521 -1016 -564 -1035 -29 -14 -61 0 -157 67
-38 27 -110 66 -160 87 -103 43 -130 64 -146 113 -17 51 -6 167 18 200 11 15
62 50 114 78 176 96 290 232 334 400 17 65 20 204 6 299 -14 103 7 139 137
227 79 54 131 76 176 77 16 1 83 -17 150 -39z"/>
<path d="M4352 3391 c-51 -34 -54 -38 -48 -71 3 -19 12 -78 20 -130 30 -185
17 -430 -34 -625 -115 -440 -438 -821 -858 -1010 -56 -26 -62 -32 -57 -52 3
-13 8 -43 12 -68 3 -25 7 -45 9 -45 2 0 43 18 91 41 l88 40 -30 13 c-32 14
-61 43 -52 52 3 3 17 -2 31 -11 17 -12 36 -15 56 -11 32 6 38 -2 18 -24 -22
-23 88 42 184 110 232 164 420 392 549 666 48 102 119 315 119 359 0 22 -2 22
-29 12 -37 -14 -81 3 -81 31 0 30 13 35 31 11 15 -20 19 -20 52 -10 20 7 38
20 41 29 14 44 27 268 21 357 -11 175 -48 376 -69 374 -6 -1 -35 -18 -64 -38z
m72 -43 c-3 -12 -15 -35 -25 -52 -11 -17 -19 -41 -19 -54 0 -13 -4 -20 -10
-17 -13 8 -13 51 1 77 8 16 8 22 -2 29 -11 6 -10 11 6 23 11 9 28 16 38 16 14
0 17 -5 11 -22z m2 -163 c-15 -49 -31 -73 -41 -63 -2 2 5 34 17 72 14 48 24
64 31 57 8 -8 6 -27 -7 -66z m44 -77 c0 -7 -5 -20 -10 -28 -8 -12 -10 -9 -10
13 0 15 5 27 10 27 6 0 10 -6 10 -12z m-41 -70 c1 -21 -27 -24 -35 -5 -3 8 0
27 7 43 l12 29 7 -25 c5 -14 8 -33 9 -42z m24 -63 c-6 -17 -47 -30 -62 -20
-18 11 -12 27 8 20 10 -3 24 1 31 10 15 18 32 11 23 -10z m5 -52 c-5 -25 -28
-28 -28 -4 0 12 6 21 16 21 9 0 14 -7 12 -17z m-48 -14 c0 -5 -7 -9 -15 -9
-15 0 -20 12 -9 23 8 8 24 -1 24 -14z m5 -50 c13 23 35 11 35 -19 0 -21 -4
-28 -14 -24 -8 3 -17 1 -21 -5 -13 -22 -33 -10 -38 22 -6 40 2 55 19 33 8 -11
14 -13 19 -7z m-28 -98 c3 -12 11 -17 20 -14 11 4 14 0 11 -18 -3 -24 -38 -41
-38 -18 0 6 -7 17 -17 24 -9 7 -14 19 -10 29 9 22 28 20 34 -3z m-17 -156 c0
-8 -7 -15 -15 -15 -8 0 -15 7 -15 15 0 8 7 15 15 15 8 0 15 -7 15 -15z m50 3
c0 -7 -7 -22 -15 -32 -22 -29 -40 -7 -19 22 17 24 34 29 34 10z m-47 -81 c30
-11 20 -30 -13 -23 -16 3 -30 4 -30 2 0 -16 15 -36 26 -36 8 0 14 -4 14 -9 0
-16 -27 -20 -45 -7 -14 10 -15 21 -10 59 7 43 9 47 24 34 9 -8 24 -17 34 -20z
m-59 -99 c6 -25 -25 -65 -42 -54 -17 10 7 76 28 76 4 0 10 -10 14 -22z m36
-52 c0 -10 -53 -96 -65 -106 -18 -15 -65 -5 -65 14 0 8 19 26 43 39 24 14 49
33 57 41 11 14 30 22 30 12z m-126 -161 c19 -29 21 -55 3 -55 -21 0 -37 22
-37 52 0 35 13 36 34 3z m-39 -108 c-18 -28 -62 -54 -72 -43 -9 9 55 66 74 66
11 0 10 -5 -2 -23z m15 -56 c0 -5 -27 -26 -60 -47 -35 -22 -58 -44 -56 -51 9
-21 -11 -24 -35 -4 l-23 18 30 15 c21 10 28 20 27 36 -2 19 1 21 22 16 17 -4
33 1 51 15 25 19 44 20 44 2z m-168 -136 c0 -5 -5 -11 -11 -13 -6 -2 -11 4
-11 13 0 9 5 15 11 13 6 -2 11 -8 11 -13z m-28 -41 c11 -29 6 -34 -29 -34 -30
0 -35 -3 -35 -22 0 -36 -14 -50 -42 -43 -15 4 -29 2 -32 -4 -4 -6 -2 -11 3
-11 6 0 11 -7 11 -16 0 -24 -44 -14 -48 11 -3 30 11 46 49 54 24 5 35 13 39
31 3 14 14 26 25 28 11 2 24 8 30 13 13 13 22 11 29 -7z m-188 -171 c22 -29
16 -43 -16 -43 -32 0 -36 9 -20 41 13 24 19 24 36 2z m-76 -62 c0 -14 -18 -23
-30 -16 -6 4 -8 11 -5 16 8 12 35 12 35 0z m-80 -21 c8 -5 11 -12 7 -16 -4 -4
-2 -13 4 -20 15 -18 -11 -28 -51 -20 -22 4 -30 2 -30 -9 0 -11 -11 -15 -37
-15 l-38 0 27 24 c14 14 28 31 31 38 4 10 8 10 16 -2 9 -13 13 -12 26 8 18 24
23 26 45 12z m-221 -140 c-13 -36 -29 -39 -29 -7 0 27 7 37 26 37 10 0 11 -7
3 -30z m54 5 c1 -5 -6 -11 -15 -13 -11 -2 -18 3 -18 13 0 17 30 18 33 0z"/>
<path d="M1864 3389 c-118 -94 -305 -136 -454 -101 -24 6 -46 10 -47 8 -1 -1
46 -90 105 -197 190 -341 687 -1250 755 -1379 37 -69 72 -134 80 -144 13 -18
15 -17 25 12 17 51 88 147 139 191 67 57 148 98 237 119 l77 18 1 205 0 204
-73 6 c-370 32 -603 417 -463 763 13 33 23 60 21 62 -1 1 -69 51 -152 109 -82
59 -164 118 -181 131 l-31 24 -39 -31z m111 -87 c57 -28 175 -122 191 -153 11
-22 14 -45 10 -78 -28 -224 -17 -333 48 -466 67 -136 184 -239 344 -302 47
-18 96 -40 110 -49 68 -45 71 -218 4 -280 -11 -11 -51 -35 -89 -54 -37 -19
-108 -65 -157 -102 -114 -87 -144 -89 -195 -14 -41 60 -349 614 -618 1113
-147 271 -148 289 -24 313 51 10 89 22 246 80 52 20 78 18 130 -8z"/>
<path d="M2643 3396 c-230 -56 -403 -273 -403 -505 0 -292 237 -531 525 -531
287 0 525 239 525 528 0 131 -60 272 -155 368 -128 127 -319 182 -492 140z
m205 -62 c-5 -55 -27 -63 -66 -24 -22 22 -39 30 -52 27 -11 -3 -22 -1 -25 3
-10 16 30 29 88 30 l58 0 -3 -36z m-244 -20 c3 -9 6 -34 6 -56 0 -34 -3 -39
-17 -33 -10 4 -34 12 -53 17 -53 15 -55 23 -13 57 41 34 68 39 77 15z m110
-15 c11 17 26 13 26 -7 0 -23 -19 -42 -42 -42 -22 0 -43 42 -34 67 7 16 9 16
25 -6 12 -16 21 -20 25 -12z m256 16 c0 -8 5 -24 12 -35 16 -25 4 -37 -18 -19
-10 8 -26 13 -36 11 -17 -3 -19 0 -13 20 12 36 55 55 55 23z m80 -58 c0 -14
-20 -37 -32 -37 -12 0 -10 24 4 38 16 16 28 15 28 -1z m40 -24 c0 -10 -32 -43
-42 -43 -12 0 -10 24 4 38 13 13 38 16 38 5z m-624 -19 c-3 -9 -6 -21 -6 -27
0 -7 -5 -19 -10 -27 -9 -13 -11 -13 -19 -1 -8 12 -12 13 -25 1 -32 -26 -29 1
4 35 35 37 67 47 56 19z m374 -11 c0 -4 -42 -49 -92 -101 -103 -105 -102 -98
-7 -122 78 -20 188 -123 204 -192 6 -23 2 -29 -26 -43 -18 -10 -56 -26 -86
-36 -45 -15 -145 -76 -243 -146 l-24 -18 19 34 c11 18 71 82 133 141 l112 108
-41 35 c-63 55 -187 68 -300 32 -33 -11 -21 13 44 82 104 113 138 143 217 189
75 44 90 50 90 37z m296 -45 c10 -30 10 -39 -1 -48 -10 -8 -19 -3 -41 25 -26
35 -26 36 -8 50 26 20 35 15 50 -27z m-141 -2 c42 -32 85 -97 88 -132 3 -42
-31 -43 -101 -4 -101 57 -125 79 -117 109 16 65 66 76 130 27z m-632 -25 c-4
-15 0 -18 21 -14 25 5 26 3 26 -41 0 -25 -4 -46 -10 -46 -5 0 -10 14 -10 30 0
27 -2 30 -25 24 -21 -5 -25 -3 -25 14 0 26 10 52 20 52 5 0 6 -8 3 -19z m202
0 c3 -5 -7 -19 -22 -31 -25 -19 -28 -20 -31 -5 -7 31 37 61 53 36z m615 -82
c0 -25 -33 -22 -38 4 -2 12 3 17 17 17 15 0 21 -6 21 -21z m-832 -38 c-18 -16
-35 -25 -37 -20 -5 15 30 49 51 49 15 0 12 -6 -14 -29z m517 20 c3 -6 37 -31
75 -56 134 -89 245 -245 220 -309 -10 -26 -83 -54 -195 -74 -69 -13 -205 -25
-205 -19 0 2 47 28 104 56 57 28 123 65 146 82 36 26 41 34 35 56 -9 38 -53
98 -134 183 -39 41 -71 78 -71 83 0 10 18 9 25 -2z m330 -39 c0 -18 -20 -15
-23 4 -3 10 1 15 10 12 7 -3 13 -10 13 -16z m-831 -23 c-15 -30 -14 -62 2
-117 3 -9 -2 -4 -11 12 -19 32 -16 96 5 121 20 24 22 17 4 -16z m854 -21 c-6
-18 -28 -21 -28 -4 0 9 7 16 16 16 9 0 14 -5 12 -12z m42 -51 c0 -13 -6 -32
-14 -42 -12 -17 -17 -18 -42 -5 -16 7 -37 12 -47 11 -13 -2 -18 3 -15 16 4 24
35 29 58 8 18 -17 20 -16 31 9 15 32 29 34 29 3z m-844 -71 c-8 -39 -30 -56
-73 -55 -27 0 -27 0 7 12 30 10 36 18 44 55 12 51 32 40 22 -12z m282 11 c4
-20 -25 -34 -40 -19 -15 15 -1 44 19 40 10 -2 19 -11 21 -21z m552 -84 c0 -29
-17 -63 -30 -63 -11 0 -14 93 -3 103 11 12 33 -15 33 -40z m-730 -18 c0 -32
-28 -45 -46 -21 -17 24 -7 46 22 46 19 0 24 -5 24 -25z m114 10 c8 -23 -4 -45
-25 -45 -11 0 -22 7 -25 15 -9 23 3 45 25 45 10 0 21 -7 25 -15z m-236 -48 c2
-15 -1 -27 -7 -27 -6 0 -11 6 -11 14 0 8 -3 22 -7 32 -4 12 -2 15 8 12 8 -2
15 -17 17 -31z m-38 -18 c0 -5 -4 -9 -10 -9 -5 0 -10 7 -10 16 0 8 5 12 10 9
6 -3 10 -10 10 -16z m833 -67 c-13 -35 -36 -62 -69 -81 -42 -25 -60 -26 -68
-5 -10 26 -7 31 22 37 15 3 45 22 67 41 39 36 59 39 48 8z m-735 -24 c4 -47
-17 -51 -46 -10 -24 34 -18 54 17 50 22 -3 26 -8 29 -40z m652 12 c0 -12 -40
-33 -48 -25 -4 4 2 13 12 21 23 16 36 18 36 4z m-580 -75 c0 -35 -10 -55 -29
-55 -46 0 -57 63 -13 78 34 12 42 7 42 -23z m493 -4 c11 -43 0 -52 -25 -21
-19 24 -20 24 -34 5 -8 -10 -14 -28 -14 -38 0 -19 -1 -19 -18 -4 -26 24 -51
21 -61 -6 -15 -38 -38 -52 -66 -39 -28 13 -32 34 -10 52 20 16 32 5 16 -14 -7
-9 -8 -17 -2 -20 17 -11 40 6 43 32 3 23 8 27 38 28 26 0 44 9 68 33 38 38 53
37 65 -8z m-363 -19 c0 -4 -5 -13 -12 -20 -9 -9 -9 -18 0 -37 15 -33 15 -45
-1 -45 -7 0 -21 14 -31 30 -16 29 -16 33 -2 55 15 24 46 35 46 17z m140 0 c0
-5 -11 -19 -25 -32 -21 -19 -24 -30 -19 -57 8 -45 -13 -44 -54 3 -39 43 -39
49 -7 70 29 19 44 12 25 -11 -24 -29 -2 -26 28 5 30 29 52 39 52 22z m-225
-33 c0 -15 -7 -25 -17 -27 -13 -3 -18 3 -18 21 0 13 3 27 7 31 13 12 28 -1 28
-25z"/>
<path d="M1151 3377 c-44 -116 -59 -484 -27 -672 76 -450 322 -847 687 -1108
129 -93 444 -246 463 -226 2 2 5 32 7 67 l4 63 -75 31 c-584 243 -960 803
-960 1427 0 109 16 268 35 343 5 20 -3 28 -52 58 -76 46 -72 45 -82 17z m94
-67 c9 -10 11 -21 5 -30 -7 -12 -13 -10 -34 10 -15 13 -26 27 -26 31 0 13 40
5 55 -11z m-14 -86 c-4 -34 -9 -44 -22 -44 -10 0 -12 40 -3 65 10 26 29 11 25
-21z m0 -111 c6 -17 6 -30 0 -36 -12 -12 -31 0 -31 19 0 8 -10 14 -25 14 -29
0 -32 12 -9 34 20 20 51 6 65 -31z m-71 -93 c0 -11 -7 -20 -15 -20 -8 0 -15 9
-15 20 0 11 7 20 15 20 8 0 15 -9 15 -20z m50 -24 c0 -8 -4 -17 -9 -21 -12 -7
-24 12 -16 25 9 15 25 12 25 -4z m29 -171 c5 -33 7 -63 4 -67 -17 -29 -59 27
-48 63 4 10 2 26 -3 35 -7 13 -11 7 -16 -25 -3 -22 -11 -41 -17 -41 -18 0 -2
90 19 111 16 16 18 16 34 0 9 -9 21 -43 27 -76z m9 -122 c2 -8 -5 -13 -17 -13
-11 0 -25 -9 -31 -20 -13 -24 -32 -17 -23 8 13 37 61 54 71 25z m17 -172 c26
-20 33 -41 14 -41 -6 0 -26 15 -45 34 -30 30 -33 37 -27 72 3 21 11 45 17 53
8 11 12 1 14 -42 2 -46 8 -60 27 -76z m33 -106 c-3 -15 -1 -25 6 -24 29 3 37
-2 34 -23 -2 -19 -8 -22 -33 -20 -38 4 -55 19 -55 46 0 25 17 46 38 46 10 0
13 -8 10 -25z m62 -121 c14 -35 13 -37 -10 -31 -11 3 -20 1 -20 -4 0 -5 -7 -9
-15 -9 -10 0 -15 10 -15 30 0 30 14 41 23 18 3 -8 6 -6 6 5 1 26 20 21 31 -9z
m47 -89 c7 -20 6 -21 -39 -29 -29 -5 -38 -4 -38 7 0 34 65 53 77 22z m37 -51
c20 -8 20 -33 0 -62 -12 -18 -19 -20 -35 -12 -10 6 -19 17 -19 24 0 8 -7 16
-15 20 -8 3 -15 12 -15 21 0 16 52 21 84 9z m49 -91 c4 -3 2 -12 -4 -20 -9 -9
-8 -13 0 -13 6 0 11 -9 11 -21 0 -14 -5 -19 -17 -17 -10 2 -17 11 -15 20 2 12
-3 15 -18 11 -23 -6 -28 15 -8 35 13 13 41 16 51 5z m47 -104 c0 -12 -7 -19
-20 -19 -19 0 -28 28 -14 43 11 11 34 -5 34 -24z m69 -38 c17 -11 7 -41 -13
-41 -8 0 -16 -10 -18 -22 -5 -34 -20 -28 -37 15 -12 33 -12 40 0 48 18 11 50
11 68 0z m55 -71 c25 -10 46 -24 46 -29 0 -13 -45 -61 -57 -61 -11 0 -53 92
-46 103 6 10 5 10 57 -13z m76 -90 c0 -21 -15 -27 -25 -10 -7 12 2 30 16 30 5
0 9 -9 9 -20z m55 -30 c10 -11 26 -22 36 -25 11 -4 19 -11 19 -17 0 -13 -30
-37 -47 -38 -15 0 -43 51 -43 80 0 25 12 26 35 0z m106 -80 c22 -12 26 -40 5
-40 -8 0 -17 -8 -20 -17 -6 -15 -8 -15 -23 0 -14 13 -14 21 -5 42 13 28 16 29
43 15z m103 -73 c16 -25 -16 -56 -38 -37 -19 15 -21 46 -3 53 18 8 29 3 41
-16z m95 -44 c15 -12 18 -21 10 -35 -10 -19 -39 -25 -39 -8 0 6 -7 10 -15 10
-16 0 -19 9 -9 34 8 21 29 20 53 -1z m72 -53 c22 0 24 -11 7 -28 -23 -23 -48
-14 -48 16 0 32 13 52 18 28 2 -9 12 -16 23 -16z"/>
<path d="M4073 2917 c-269 -533 -550 -1085 -623 -1221 -34 -64 -56 -116 -50
-116 20 0 149 70 232 126 497 338 740 891 656 1494 -5 41 -13 80 -17 87 -3 7
-93 -160 -198 -370z m158 36 c15 -37 5 -228 -15 -315 -43 -181 -144 -399 -250
-539 -112 -149 -284 -295 -338 -287 -48 7 -27 58 248 604 116 232 228 448 249
480 56 90 87 106 106 57z"/>
<path d="M1301 3202 c-36 -255 -17 -485 60 -717 96 -291 312 -579 570 -760 74
-53 298 -175 320 -175 16 0 10 15 -67 150 -100 176 -774 1411 -819 1500 -19
38 -39 71 -44 74 -5 3 -14 -29 -20 -72z m106 -214 c27 -30 80 -118 188 -313
48 -88 109 -198 135 -245 320 -577 356 -659 293 -668 -79 -11 -317 203 -448
403 -139 211 -224 470 -228 690 -3 149 13 184 60 133z"/>
<path d="M2713 1856 c-188 -46 -344 -202 -388 -387 -78 -334 175 -652 518
-648 47 0 57 2 40 9 -30 12 -29 30 1 30 13 0 29 6 36 14 9 12 7 18 -9 33 -24
20 -27 33 -7 33 44 0 61 -68 24 -96 -22 -16 -22 -16 22 -10 79 12 186 71 258
144 36 36 61 67 54 70 -7 2 -12 10 -12 18 0 14 -11 18 -42 15 -36 -4 -19 38
30 74 26 19 50 35 54 35 4 0 8 -17 10 -37 l3 -38 16 36 c82 181 33 414 -117
566 -127 126 -319 180 -491 139z m194 -10 c14 -14 -12 -27 -40 -20 -41 8 -49
13 -41 26 6 9 70 5 81 -6z m-97 -41 c9 -11 16 -13 24 -5 16 16 44 12 55 -7 10
-17 12 -17 26 1 23 30 31 10 14 -36 -19 -52 -35 -58 -51 -21 -7 15 -13 30 -15
32 -2 3 -14 -6 -28 -19 -30 -28 -41 -21 -50 33 -8 39 3 48 25 22z m-86 -1 c23
-9 20 -21 -14 -54 -32 -32 -58 -38 -78 -18 -9 9 -18 6 -38 -13 -36 -34 -48
-59 -35 -72 16 -16 14 -37 -3 -37 -8 0 -36 -11 -62 -25 -61 -33 -97 -33 -92
-2 2 18 9 22 32 20 40 -3 96 32 96 60 0 60 117 152 132 105 6 -17 28 0 28 23
0 20 8 23 34 13z m256 -29 c0 -8 -7 -15 -15 -15 -8 0 -15 7 -15 15 0 8 7 15
15 15 8 0 15 -7 15 -15z m67 0 c7 -20 -2 -29 -21 -22 -9 4 -13 13 -10 22 8 19
23 19 31 0z m51 -33 c2 -7 -3 -12 -12 -12 -9 0 -16 7 -16 16 0 17 22 14 28 -4z
m42 -12 c0 -12 -32 -50 -42 -50 -12 0 -9 35 4 48 15 15 38 16 38 2z m35 -56
c30 -20 32 -34 5 -34 -11 0 -20 -7 -20 -15 0 -8 -7 -15 -15 -15 -10 0 -15 10
-15 33 0 30 6 47 17 47 2 0 15 -7 28 -16z m58 -95 c-36 -24 -43 -24 -43 1 0
25 39 43 58 27 10 -8 7 -14 -15 -28z m-333 17 c0 -2 -30 -24 -67 -50 -89 -60
-117 -87 -188 -175 -33 -40 -61 -69 -63 -63 -4 14 44 126 74 171 43 65 137
120 207 121 20 0 37 -2 37 -4z m90 -10 c0 -8 -22 -60 -49 -117 -69 -149 -85
-219 -78 -354 6 -114 2 -118 -29 -29 -21 59 -24 196 -6 273 6 30 10 56 8 59
-3 2 -25 -8 -49 -23 -52 -30 -105 -85 -161 -168 -38 -55 -56 -70 -56 -46 0 6
26 55 57 108 78 130 174 226 273 274 84 41 90 43 90 23z m290 -47 c0 -5 -7 -9
-15 -9 -15 0 -20 12 -9 23 8 8 24 -1 24 -14z m-48 -4 c0 -5 -5 -11 -11 -13 -6
-2 -11 4 -11 13 0 9 5 15 11 13 6 -2 11 -8 11 -13z m-784 -11 c25 -17 29 -34
9 -34 -9 0 -12 -9 -9 -29 4 -31 -7 -44 -32 -35 -21 8 -21 50 1 62 14 9 14 11
-5 21 -12 7 -22 16 -22 21 0 15 33 12 58 -6z m850 -30 c29 -20 28 -38 -2 -30
-18 4 -25 1 -29 -14 -3 -11 -12 -20 -21 -20 -13 0 -15 6 -10 28 7 28 22 52 33
52 4 0 17 -7 29 -16z m-146 -21 c22 -20 23 -56 2 -77 -40 -40 -105 4 -85 57
15 39 52 48 83 20z m165 -59 c3 -8 1 -26 -5 -39 -9 -18 -8 -25 4 -29 23 -9 18
-39 -6 -33 -11 3 -20 1 -20 -4 0 -5 7 -9 15 -9 8 0 15 -4 15 -9 0 -16 -20 -23
-47 -16 -23 5 -25 9 -20 46 3 22 13 49 21 58 9 10 14 25 10 35 -4 11 -1 16 10
16 9 0 19 -7 23 -16z m-878 -13 c12 -8 11 -16 -5 -55 -25 -61 -49 -62 -58 -1
-4 25 -4 49 -1 55 8 12 45 13 64 1z m617 -30 c5 -5 33 -16 61 -26 61 -19 83
-45 83 -96 0 -50 -19 -64 -78 -54 -68 11 -96 8 -141 -14 l-39 -21 -7 31 c-12
54 24 169 57 182 21 9 53 8 64 -2z m-251 -18 c-17 -46 -25 -124 -17 -181 5
-35 5 -65 0 -68 -4 -3 -8 1 -8 9 0 18 -41 99 -55 109 -16 12 -22 10 -58 -22
-19 -16 -37 -30 -41 -30 -36 0 91 150 159 188 27 15 28 15 20 -5z m-368 -102
c-3 -12 1 -22 9 -25 22 -9 16 -24 -15 -41 -37 -19 -51 -3 -24 27 10 12 13 18
6 15 -6 -4 -15 -3 -18 3 -11 18 3 40 26 40 16 0 20 -5 16 -19z m888 -17 c0
-10 -8 -20 -17 -22 -18 -3 -26 27 -11 42 12 11 28 0 28 -20z m-235 -74 c38
-38 18 -90 -35 -90 -35 0 -55 20 -55 54 0 20 35 56 55 56 8 0 24 -9 35 -20z
m-594 -25 c-3 -8 2 -19 10 -26 29 -24 -17 -49 -60 -33 -23 9 -20 31 9 60 25
25 51 24 41 -1z m249 -46 c73 -67 72 -105 -4 -93 -54 9 -129 58 -137 91 -8 31
8 43 59 43 30 0 46 -8 82 -41z m220 -39 c8 -24 -1 -40 -21 -40 -20 0 -29 27
-14 45 17 20 27 19 35 -5z m-440 -21 c0 -7 -8 -15 -17 -17 -18 -3 -25 18 -11
32 10 10 28 1 28 -15z m685 6 c0 -8 -9 -15 -20 -15 -11 0 -20 7 -20 15 0 8 9
15 20 15 11 0 20 -7 20 -15z m-586 -23 c7 -12 -20 -86 -33 -90 -10 -3 -15 11
-12 31 1 5 -8 6 -19 2 -30 -10 -25 19 8 44 29 22 48 26 56 13z m516 -24 c0
-32 -80 -102 -80 -70 0 4 -3 17 -6 29 -5 16 1 25 23 37 34 18 63 20 63 4z
m-424 -43 c12 -9 15 -18 9 -22 -5 -5 -10 -15 -10 -23 0 -18 -33 -15 -54 5 -13
12 -12 15 2 20 8 4 13 13 10 21 -7 18 18 18 43 -1z m314 6 c0 -14 -18 -23 -30
-16 -6 4 -8 11 -5 16 8 12 35 12 35 0z m-274 -77 c-7 -18 -26 -18 -26 0 0 8 5
27 12 43 l12 28 4 -28 c2 -16 1 -35 -2 -43z m47 44 c6 -18 -4 -78 -14 -78 -15
0 -20 20 -13 55 6 35 18 45 27 23z m87 -29 c0 -12 -37 -12 -45 0 -3 5 3 11 12
13 21 5 33 0 33 -13z"/>
</g>
</svg>
